# xmcd
#
# Track frame offsets:
#	180
#	16155
#	24127
#	33891
#	44088
#	58506
#	71991
#	85245
#	90362
#	97660
#	112615
#	123804
#	163319
#	172022
#	187687
#	192525
#
# Disc length: 2682 seconds
#
# Revision: 1
# Processed by: cddbd v1.4PL0 Copyright (c) Steve Scherf et al.
# Submitted via: MusicManager 7.0.3.0 
#
DISCID=bd0a7810
DTITLE=Holiday, Billy  - Greatest Hits Vol.2
DYEAR=1994
DGENRE=Blues
TTITLE0=I Cover The Waterfront
TTITLE1=I Loves YOu Porgy
TTITLE2=Crazy They Call Me
TTITLE3=Detour Ahead Ellis
TTITLE4=Lover Man
TTITLE5=All Of Me
TTITLE6=He's Funny That Way
TTITLE7=You're Drivin' Me Crazy
TTITLE8=Moonlight In Vermont
TTITLE9=Don't Explain
TTITLE10=Foolin' Myself
TTITLE11=Fine and Mellow
TTITLE12=Moanin' Low
TTITLE13=Easy to Remember
TTITLE14=Ghost of a Chance
TTITLE15=Please don't talk about Me when I'm Gone
EXTD=
EXTT0=
EXTT1=
EXTT2=
EXTT3=
EXTT4=
EXTT5=
EXTT6=
EXTT7=
EXTT8=
EXTT9=
EXTT10=
EXTT11=
EXTT12=
EXTT13=
EXTT14=
EXTT15=
PLAYORDER=
